<?xml version="1.0" encoding="UTF-8"?>
<!DOCTYPE svg PUBLIC "-//W3C//DTD SVG 1.1//EN" "http://www.w3.org/Graphics/SVG/1.1/DTD/svg11.dtd">
<svg xmlns="http://www.w3.org/2000/svg" version="1.1" width="143px" height="43px" style="shape-rendering:geometricPrecision; text-rendering:geometricPrecision; image-rendering:optimizeQuality; fill-rule:evenodd; clip-rule:evenodd" xmlns:xlink="http://www.w3.org/1999/xlink">
<g><path style="opacity:0.984" fill="#ff8402" d="M 11.5,-0.5 C 21.8333,-0.5 32.1667,-0.5 42.5,-0.5C 42.6665,9.83871 42.4998,20.172 42,30.5C 39.9812,36.3502 36.1478,40.3502 30.5,42.5C 20.1667,42.5 9.83333,42.5 -0.5,42.5C -0.5,32.1667 -0.5,21.8333 -0.5,11.5C 1.83333,5.83333 5.83333,1.83333 11.5,-0.5 Z"/></g>
<g><path style="opacity:0.886" fill="#fefffe" d="M 67.5,4.5 C 72.777,3.93118 77.777,4.76451 82.5,7C 84.9305,9.30459 85.9305,12.1379 85.5,15.5C 82.8127,15.6641 80.146,15.4974 77.5,15C 74.6338,11.7358 71.9671,11.7358 69.5,15C 69.6448,15.772 69.9781,16.4387 70.5,17C 75.4038,17.5791 80.0705,18.9124 84.5,21C 88.5658,28.8215 86.5658,34.4882 78.5,38C 71.4117,39.8884 65.5783,38.0551 61,32.5C 60.5065,30.8659 60.3398,29.1992 60.5,27.5C 65.1861,27.1706 69.5194,28.1706 73.5,30.5C 75.4405,30.1964 77.1072,29.3631 78.5,28C 77.8333,27.3333 77.1667,26.6667 76.5,26C 72.7808,25.6116 69.1141,24.9449 65.5,24C 58.4162,16.7462 59.0829,10.2462 67.5,4.5 Z"/></g>
<g><path style="opacity:0.959" fill="#fefffe" d="M 43.5,5.5 C 48.8333,5.5 54.1667,5.5 59.5,5.5C 59.5,8.16667 59.5,10.8333 59.5,13.5C 58.1667,13.5 56.8333,13.5 55.5,13.5C 55.5,18.8333 55.5,24.1667 55.5,29.5C 56.8333,29.5 58.1667,29.5 59.5,29.5C 59.5,32.1667 59.5,34.8333 59.5,37.5C 54.1667,37.5 48.8333,37.5 43.5,37.5C 43.5,34.8333 43.5,32.1667 43.5,29.5C 44.8333,29.5 46.1667,29.5 47.5,29.5C 47.5,24.1667 47.5,18.8333 47.5,13.5C 46.1667,13.5 44.8333,13.5 43.5,13.5C 43.5,10.8333 43.5,8.16667 43.5,5.5 Z"/></g>
<g><path style="opacity:0.925" fill="#fefffe" d="M 87.5,5.5 C 98.8382,5.33348 110.172,5.50014 121.5,6C 122.63,8.42807 124.13,10.5947 126,12.5C 127.5,10.3333 129,8.16667 130.5,6C 133.482,5.50204 136.482,5.33537 139.5,5.5C 137.116,10.5989 134.449,15.5989 131.5,20.5C 134.401,26.0754 137.734,31.4087 141.5,36.5C 138.216,37.657 134.882,37.8236 131.5,37C 129.542,34.2518 127.709,31.4185 126,28.5C 123.793,31.0779 121.96,33.9113 120.5,37C 117.118,37.8236 113.784,37.657 110.5,36.5C 113.833,31.1667 117.167,25.8333 120.5,20.5C 117.863,16.0316 115.03,11.6983 112,7.5C 111.505,9.4727 111.338,11.4727 111.5,13.5C 108.833,13.5 106.167,13.5 103.5,13.5C 103.5,21.5 103.5,29.5 103.5,37.5C 100.833,37.5 98.1667,37.5 95.5,37.5C 95.5,29.5 95.5,21.5 95.5,13.5C 92.8333,13.5 90.1667,13.5 87.5,13.5C 87.5,10.8333 87.5,8.16667 87.5,5.5 Z"/></g>
</svg>
